<?xml version="1.0" encoding="utf-8"?>
<!-- Generator: Adobe Illustrator 27.5.0, SVG Export Plug-In . SVG Version: 6.00 Build 0)  -->
<svg version="1.1" id="Layer_1" xmlns="http://www.w3.org/2000/svg" xmlns:xlink="http://www.w3.org/1999/xlink" x="0px" y="0px"
	 viewBox="0 0 1000 100" style="enable-background:new 0 0 1000 100;" xml:space="preserve">
<style type="text/css">
	.st0{display:none;}
	.st1{display:inline;fill:#173277;}
	.st2{fill:#FFFFFF;}
</style>
<g id="Layer_2_1_" class="st0">
	<rect x="-2431.8" y="-429.5" class="st1" width="5297.8" height="1175.3"/>
</g>
<g id="Layer_1_1_">
	<g transform="rotate(0 104.6571 25.7354)">
		<g transform="matrix(1 0 0 1 0 0)">
			<path class="st2" d="M152.5,79.4v-6.6h6.6v-43h-6.6v-6.6h26.6c5.9,0,10.4,1.2,13.4,3.6s4.5,5.8,4.5,10.3l0,0
				c0,3.1-0.7,5.7-2.2,7.8s-3.5,3.5-6.1,4.4l0,0c3.7,0.9,6.5,2.5,8.3,5.1c1.9,2.5,2.8,5.6,2.8,9.2l0,0c0,4.7-1.6,8.5-4.7,11.5
				s-8,4.4-14.5,4.4l0,0L152.5,79.4L152.5,79.4z M168.6,46.7h9.3c6.4,0,9.6-2.8,9.6-8.7l0,0c0-2.8-0.9-5-2.6-6.2
				c-1.7-1.2-4.5-1.9-8.4-1.9l0,0h-8L168.6,46.7L168.6,46.7z M168.6,72.8H179c7.4,0,11.1-3.3,11.1-9.8l0,0c0-3.1-0.9-5.4-2.8-7.1
				c-1.9-1.7-4.8-2.6-8.5-2.6l0,0h-10.1L168.6,72.8L168.6,72.8z M225.4,79.4h-20v-6.1h6.1V28.5h-5.9v-6.1H220v50.9h5.4V79.4z
				 M266.8,73.3h6.1v6.1h-14.1l-0.3-4.5c-4.2,3.6-8.5,5.5-12.9,5.5l0,0c-4,0-7-1.2-9-3.7s-3-5.7-3-9.5l0,0V46.5h-5.5v-6.1h14.1v25.6
				c0,2.4,0.5,4.3,1.5,5.6c1,1.3,2.6,2,4.6,2l0,0c3.4,0,6.7-1.4,10.1-4.5l0,0V46.5h-5.8v-6.1h14.2L266.8,73.3L266.8,73.3L266.8,73.3
				z M312.8,59.5v2.1h-28.1c0.4,3.7,1.7,6.6,3.9,8.7c2.2,2.1,4.9,3.2,8.1,3.2l0,0c2.4,0,4.7-0.5,6.9-1.5c2.2-1,4.2-2.4,5.9-4.2l0,0
				l2.7,5.7c-1.9,2.2-4.2,3.9-6.9,5.2c-2.7,1.3-5.7,2-9,2l0,0c-3.9,0-7.3-0.9-10.4-2.6s-5.5-4.2-7.2-7.2c-1.8-3.2-2.6-6.8-2.6-10.8
				l0,0c0-4,0.8-7.7,2.5-10.8s3.9-5.6,6.9-7.2c2.9-1.7,6.2-2.6,9.7-2.6l0,0c5.5,0,9.8,1.9,12.9,5.6
				C311.2,48.5,312.8,53.5,312.8,59.5L312.8,59.5z M284.6,56.7h19.9c0-3.4-0.9-6-2.6-7.9c-1.8-2-4-2.8-6.9-2.8l0,0
				c-2.8,0-5.2,1-7,2.8C286.1,50.7,285,53.2,284.6,56.7L284.6,56.7z M392.6,60l7.2,3.4c-1.9,5.8-4.9,10.1-9.2,12.9
				c-4.3,2.8-9.4,4.3-15.5,4.3l0,0c-5.4,0-10.1-1.2-14.3-3.6c-4.2-2.4-7.4-5.9-9.7-10.3c-2.3-4.4-3.5-9.5-3.5-15.2l0,0
				c0-5.6,1.1-10.6,3.4-15s5.5-7.8,9.5-10.3c4.1-2.5,8.8-3.7,14.1-3.7l0,0c3.8,0,7.2,0.8,10.2,2.2c3,1.4,5.4,3.5,7.1,6.1l0,0v-7.3
				h6.7v17.8l-5.9,0.1c-1.8-3.9-4.1-6.9-6.8-8.7c-2.7-1.9-6-2.7-9.9-2.7l0,0c-3.8,0-7.1,1-9.9,2.8s-5,4.5-6.5,7.7s-2.3,6.9-2.3,10.9
				l0,0c0,4.4,0.8,8.2,2.4,11.5c1.6,3.3,3.7,5.9,6.5,7.7c2.8,1.7,5.9,2.7,9.5,2.7l0,0c4,0,7.5-1.1,10.5-3.3
				C389.1,67.7,391.2,64.3,392.6,60L392.6,60z M427,79.4h-20v-6.1h6.1V28.5h-5.9v-6.1h14.4v50.9h5.4V79.4z M440.2,32.2
				c-1.6,0-3-0.5-4.1-1.6s-1.6-2.5-1.6-4.2l0,0c0-1.7,0.5-3.2,1.6-4.3c1.1-1.1,2.4-1.6,4.1-1.6l0,0c1.6,0,3,0.5,4,1.6
				c1.1,1.1,1.6,2.5,1.6,4.3l0,0c0.1,1.6-0.4,3.1-1.5,4.2C443.2,31.5,441.9,32.2,440.2,32.2L440.2,32.2z M451.3,79.4h-20.7v-6.1h6.3
				V46.5h-6.2v-6.1h14.7v32.9h6L451.3,79.4L451.3,79.4z M518.9,73.3h6v6.1H505v-6.1h5.3V54.2c0-2.5-0.6-4.5-1.7-5.9
				s-2.6-2.2-4.6-2.2l0,0c-3.2,0-6.6,1.3-10.2,3.9l0,0c0.1,1.1,0.2,2,0.2,2.6l0,0v20.6h6.1v6.1h-19.9v-6.1h5.4v-19
				c0-2.5-0.6-4.5-1.7-5.9s-2.6-2.2-4.6-2.2l0,0c-2.6,0-5.9,1.2-9.6,3.5l0,0v23.6h5.8v6.1H455v-6.1h6.3V46.5h-6.2v-6.1h14.4l0.1,3.7
				c4.4-3.2,8.5-4.8,12.6-4.8l0,0c2.4,0,4.5,0.5,6.2,1.6c1.8,1.1,3.1,2.6,4,4.5l0,0c2.5-2,5-3.5,7.3-4.6s4.8-1.6,7.3-1.6l0,0
				c3.4,0,6.3,1.2,8.5,3.6c2.2,2.4,3.3,5.6,3.3,9.6l0,0L518.9,73.3L518.9,73.3z M560.6,73.3h5.3v6.1h-12.5l-0.5-3.6
				c-1.9,1.6-3.8,2.7-5.7,3.5s-4,1.1-6.4,1.1l0,0c-3.6,0-6.6-1.1-8.8-3.3c-2.2-2.2-3.3-4.9-3.3-8.3l0,0c0-4.3,1.3-7.3,4-9.3
				c2.6-2,6.1-3,10.3-3l0,0c3.1,0,6.2,0.4,9.3,1.3l0,0v-3.4c0-2.8-0.7-5-2.1-6.4c-1.4-1.4-3.3-2.2-5.9-2.2l0,0c-1.7,0-3.6,0.3-5.8,1
				s-4.3,1.5-6.3,2.6l0,0l-2.3-5.8c2.2-1.4,4.7-2.5,7.5-3.3c2.7-0.8,5.4-1.1,7.8-1.1l0,0c4.8,0,8.6,1.3,11.4,3.9
				c2.7,2.6,4.1,6.1,4.1,10.5l0,0L560.6,73.3L560.6,73.3z M536.4,68.4c0,2,0.6,3.5,1.7,4.6c1.1,1.2,2.6,1.7,4.6,1.7l0,0
				c3.1,0,6.3-1.2,9.5-3.7l0,0v-8.2c-2.7-0.8-5.4-1.2-8.1-1.2l0,0c-2.2,0-4.1,0.5-5.5,1.6C537.1,64.2,536.4,66.1,536.4,68.4
				L536.4,68.4z M585,79.4c-7.1,0-10.7-3.8-10.7-11.6l0,0V46.5h-5.5v-6.1h5.5V27.4l8.5-2.7v15.8h9v6.1h-9v20.3c0,2.3,0.3,3.9,1,4.9
				s1.9,1.4,3.6,1.4l0,0h5.1v6.2L585,79.4L585,79.4z M633.8,59.5v2.1h-28.1c0.4,3.7,1.7,6.6,3.9,8.7s4.9,3.2,8.1,3.2l0,0
				c2.4,0,4.7-0.5,6.9-1.5s4.2-2.4,5.9-4.2l0,0l2.7,5.7c-1.9,2.2-4.2,3.9-6.9,5.2c-2.7,1.3-5.7,2-9,2l0,0c-3.9,0-7.3-0.9-10.4-2.6
				c-3.1-1.7-5.5-4.2-7.2-7.2c-1.8-3.2-2.6-6.8-2.6-10.8l0,0c0-4,0.8-7.7,2.5-10.8c1.7-3.2,3.9-5.6,6.9-7.2c2.9-1.7,6.2-2.6,9.7-2.6
				l0,0c5.5,0,9.8,1.9,12.9,5.6C632.2,48.5,633.8,53.5,633.8,59.5L633.8,59.5z M605.6,56.7h19.9c0-3.4-0.9-6-2.6-7.9
				c-1.8-2-4-2.8-6.9-2.8l0,0c-2.8,0-5.2,1-7,2.8C607.1,50.7,606,53.2,605.6,56.7L605.6,56.7z M691.7,79.4H669v-6.6h6.5v-43H669
				v-6.6h22.7v6.6h-6.6v43.1h6.6V79.4z M737.2,73.3h6.1v6.1h-19.8v-6.1h5.3V54.2c0-2.5-0.6-4.5-1.7-5.9c-1.1-1.4-2.7-2.2-4.7-2.2
				l0,0c-2.9,0-6.1,1.2-9.7,3.6l0,0v23.5h5.8v6.1H698v-6.1h6.3V46.5H698v-6.1h14.5l0.1,3.8c4.6-3.3,8.8-4.8,12.7-4.8l0,0
				c3.5,0,6.4,1.2,8.5,3.6c2.2,2.4,3.3,5.6,3.3,9.6l0,0L737.2,73.3L737.2,73.3z M755.1,32.2c-1.6,0-3-0.5-4.1-1.6s-1.6-2.5-1.6-4.2
				l0,0c0-1.7,0.5-3.2,1.6-4.3c1.1-1.1,2.4-1.6,4.1-1.6l0,0c1.6,0,3,0.5,4,1.6s1.6,2.5,1.6,4.3l0,0c0.1,1.6-0.4,3.1-1.5,4.2
				C758.1,31.5,756.7,32.2,755.1,32.2L755.1,32.2z M766.1,79.4h-20.7v-6.1h6.3V46.5h-6.2v-6.1h14.7v32.9h6L766.1,79.4L766.1,79.4z
				 M786,79.4c-7.1,0-10.7-3.8-10.7-11.6l0,0V46.5h-5.5v-6.1h5.5V27.4l8.5-2.7v15.8h9v6.1h-9v20.3c0,2.3,0.3,3.9,1,4.9
				s1.9,1.4,3.6,1.4l0,0h5.1v6.2L786,79.4L786,79.4z M807.5,32.2c-1.6,0-3-0.5-4.1-1.6s-1.6-2.5-1.6-4.2l0,0c0-1.7,0.5-3.2,1.6-4.3
				s2.4-1.6,4.1-1.6l0,0c1.6,0,3,0.5,4,1.6c1.1,1.1,1.6,2.5,1.6,4.3l0,0c0.1,1.6-0.4,3.1-1.5,4.2C810.5,31.5,809.1,32.2,807.5,32.2
				L807.5,32.2z M818.5,79.4h-20.7v-6.1h6.3V46.5h-6.2v-6.1h14.7v32.9h6L818.5,79.4L818.5,79.4z M855.9,73.3h5.3v6.1h-12.5l-0.5-3.6
				c-1.9,1.6-3.8,2.7-5.7,3.5s-4,1.1-6.4,1.1l0,0c-3.6,0-6.6-1.1-8.8-3.3c-2.2-2.2-3.3-4.9-3.3-8.3l0,0c0-4.3,1.3-7.3,4-9.3
				c2.6-2,6.1-3,10.3-3l0,0c3.1,0,6.2,0.4,9.3,1.3l0,0v-3.4c0-2.8-0.7-5-2.1-6.4c-1.4-1.4-3.3-2.2-5.9-2.2l0,0c-1.7,0-3.6,0.3-5.8,1
				s-4.3,1.5-6.3,2.6l0,0l-2.3-5.8c2.2-1.4,4.7-2.5,7.5-3.3c2.7-0.8,5.4-1.1,7.8-1.1l0,0c4.8,0,8.6,1.3,11.4,3.9
				c2.7,2.6,4.1,6.1,4.1,10.5l0,0L855.9,73.3L855.9,73.3z M831.7,68.4c0,2,0.6,3.5,1.7,4.6c1.1,1.2,2.6,1.7,4.6,1.7l0,0
				c3.1,0,6.3-1.2,9.5-3.7l0,0v-8.2c-2.7-0.8-5.4-1.2-8.1-1.2l0,0c-2.2,0-4.1,0.5-5.5,1.6C832.4,64.2,831.7,66.1,831.7,68.4
				L831.7,68.4z M880.3,79.4c-7.1,0-10.7-3.8-10.7-11.6l0,0V46.5h-5.5v-6.1h5.5V27.4l8.5-2.7v15.8h9v6.1h-9v20.3
				c0,2.3,0.3,3.9,1,4.9s1.9,1.4,3.6,1.4l0,0h5.1v6.2L880.3,79.4L880.3,79.4z M901.8,32.2c-1.6,0-3-0.5-4.1-1.6s-1.6-2.5-1.6-4.2
				l0,0c0-1.7,0.5-3.2,1.6-4.3c1.1-1.1,2.4-1.6,4.1-1.6l0,0c1.6,0,3,0.5,4,1.6c1.1,1.1,1.6,2.5,1.6,4.3l0,0c0.1,1.6-0.4,3.1-1.5,4.2
				C904.7,31.5,903.4,32.2,901.8,32.2L901.8,32.2z M912.8,79.4h-20.7v-6.1h6.3V46.5h-6.2v-6.1h14.7v32.9h6L912.8,79.4L912.8,79.4z
				 M941.8,79.4h-7.5l-13.7-32.9h-5.3v-6.1H935v6.1h-5.3l9.1,23.8l9-23.8h-5.2v-6.1h17.9v6.1h-5.2L941.8,79.4z M1000,59.5v2.1h-28.1
				c0.4,3.7,1.7,6.6,3.9,8.7s4.9,3.2,8.1,3.2l0,0c2.4,0,4.7-0.5,6.9-1.5s4.2-2.4,5.9-4.2l0,0l2.7,5.7c-1.9,2.2-4.2,3.9-6.9,5.2
				s-5.7,2-9,2l0,0c-3.9,0-7.3-0.9-10.4-2.6c-3.1-1.7-5.5-4.2-7.2-7.2c-1.8-3.2-2.6-6.8-2.6-10.8l0,0c0-4,0.8-7.7,2.5-10.8
				c1.7-3.2,3.9-5.6,6.9-7.2c2.9-1.7,6.2-2.6,9.7-2.6l0,0c5.5,0,9.8,1.9,12.9,5.6C998.4,48.5,1000,53.5,1000,59.5L1000,59.5z
				 M971.9,56.7h19.9c0-3.4-0.9-6-2.6-7.9c-1.8-2-4-2.8-6.9-2.8l0,0c-2.8,0-5.2,1-7,2.8C973.3,50.7,972.2,53.2,971.9,56.7
				L971.9,56.7z"/>
		</g>
	</g>
	<g transform="rotate(49.5 47.8858 0)">
		<g transform="matrix(1 0 0 1 0 0)">
			<path class="st2" d="M62.9,48.1C61.5,14.8,98.1,23,97.3,5.2c-0.3-7.4-3.7-15.3-18.6-16C53.7-11.9,33.9,7.7,35,32.3
				C36.1,56.9,57.5,77.9,82.5,79C71.3,72.9,63.5,61.2,62.9,48.1z M97-23.2c11.3,6.2,19.1,17.8,19.7,30.9
				c1.5,33.3-35.2,25.1-34.4,42.9c0.3,7.4,3.7,15.3,18.6,16c25,1.1,44.8-18.5,43.7-43.1C143.5-1.2,122.1-22.1,97-23.2z"/>
		</g>
	</g>
</g>
</svg>
